<?xml version="1.0" standalone="no"?>
<!DOCTYPE svg PUBLIC "-//W3C//DTD SVG 20010904//EN"
 "http://www.w3.org/TR/2001/REC-SVG-20010904/DTD/svg10.dtd">
<svg version="1.0" xmlns="http://www.w3.org/2000/svg"
 width="500.000000pt" height="500.000000pt" viewBox="0 0 500.000000 500.000000"
 preserveAspectRatio="xMidYMid meet">
<metadata>
Created by potrace 1.14, written by Peter Selinger 2001-2017
</metadata>
<g transform="translate(0.000000,500.000000) scale(0.100000,-0.100000)"
fill="#000000" stroke="none">
<path d="M770 4157 c-3 -3 -58 -10 -122 -16 -102 -9 -125 -14 -186 -45 -38
-19 -83 -48 -99 -64 -55 -55 -68 -154 -31 -231 43 -90 86 -120 374 -263 148
-73 296 -142 329 -152 33 -10 83 -27 110 -38 133 -54 258 -109 278 -123 20
-14 15 -15 -67 -15 -83 0 -95 3 -175 40 -125 57 -203 73 -341 68 -98 -3 -123
-8 -173 -31 -113 -52 -217 -169 -217 -245 0 -35 -33 -75 -95 -117 -106 -70
-140 -125 -151 -242 -12 -129 34 -225 191 -401 165 -183 399 -400 505 -467
186 -118 292 -181 388 -229 61 -32 112 -63 111 -69 0 -7 -24 -30 -52 -52 -42
-33 -56 -51 -70 -95 -46 -137 -17 -239 98 -349 74 -71 170 -120 298 -152 102
-26 313 -38 497 -28 125 6 145 10 275 54 175 59 179 62 355 184 l145 101 144
0 c169 0 239 14 352 71 188 94 257 170 266 294 4 55 1 67 -40 151 -30 61 -57
101 -81 120 -41 33 -45 62 -24 153 9 40 9 73 -1 149 -26 200 -92 382 -189 527
-23 33 -37 61 -33 63 7 2 168 -69 251 -112 25 -13 97 -44 161 -69 63 -25 149
-64 190 -86 135 -73 403 -174 648 -243 157 -45 265 -55 312 -30 38 21 79 85
79 126 0 60 -40 93 -242 198 -191 99 -389 179 -748 300 -184 62 -617 178 -666
178 -11 0 -62 11 -114 24 l-94 24 -130 137 c-142 150 -363 328 -567 456 -136
86 -425 231 -579 292 -142 55 -402 140 -501 163 -41 9 -103 25 -139 35 -120
33 -415 72 -430 56z m261 -278 c202 -36 362 -86 624 -197 183 -77 385 -162
429 -181 56 -25 194 -106 276 -163 61 -43 170 -145 170 -159 0 -27 -182 19
-515 131 -132 44 -322 103 -423 130 -208 57 -347 103 -547 184 -172 69 -470
220 -470 238 0 42 263 52 456 17z m616 -875 c111 -16 142 -32 143 -73 2 -45
154 -276 248 -373 l65 -68 -124 0 c-166 0 -194 -14 -229 -114 -10 -26 -12 -27
-31 -14 -19 12 -21 25 -25 123 -3 98 -8 123 -45 230 -47 138 -58 160 -110 234
-22 30 -39 58 -39 63 0 11 24 10 147 -8z m-391 -29 c27 -21 60 -76 150 -250
40 -76 48 -101 52 -161 3 -43 0 -74 -6 -78 -23 -14 -171 72 -445 258 -77 53
-197 195 -197 234 l0 24 209 -3 c192 -4 212 -6 237 -24z m857 -81 c134 -56
352 -134 372 -134 32 0 155 -68 318 -174 150 -99 287 -225 287 -267 0 -52 -49
-106 -105 -114 -55 -9 -94 8 -214 93 -53 38 -114 79 -136 92 -132 77 -389 276
-482 371 -78 81 -131 159 -108 159 3 0 33 -12 68 -26z m692 -28 c72 -19 90
-31 109 -70 18 -38 20 -56 7 -56 -14 0 -172 98 -196 121 -19 19 -19 19 5 19
14 0 48 -6 75 -14z m-2228 -89 c37 -59 187 -211 258 -262 91 -65 210 -133 310
-177 224 -99 443 -179 651 -238 82 -23 160 -48 174 -55 14 -7 55 -47 92 -88
101 -112 410 -328 556 -389 28 -12 52 -25 52 -30 0 -11 -206 -9 -295 2 -38 5
-110 14 -158 20 -98 11 -245 48 -341 84 -33 13 -117 44 -186 70 -69 25 -165
67 -215 92 -49 26 -139 73 -200 104 -148 76 -246 143 -395 271 -149 128 -248
239 -313 351 -66 114 -74 145 -58 221 19 93 24 94 68 24z m2711 -725 c2 -45 0
-82 -3 -82 -3 0 -23 11 -43 25 -20 14 -42 25 -49 25 -6 0 -15 5 -19 11 -7 13
85 111 101 106 5 -2 11 -40 13 -85z m-491 -97 c56 -6 67 -12 131 -66 73 -62
144 -171 124 -191 -19 -19 -193 51 -379 154 -101 55 -181 103 -179 106 5 9
224 7 303 -3z m670 -367 c30 -28 29 -39 -4 -79 -35 -41 -151 -94 -232 -107
-69 -10 -87 -1 -39 19 32 13 219 157 233 178 9 16 16 14 42 -11z m-1482 -223
c293 -82 398 -107 658 -150 20 -3 37 -10 37 -15 0 -14 -82 -59 -163 -89 -40
-15 -90 -37 -112 -49 -22 -12 -56 -22 -75 -22 -19 0 -78 -7 -130 -15 -112 -17
-283 -19 -366 -4 -81 15 -197 74 -261 134 -49 47 -53 54 -53 97 0 41 4 49 44
86 70 65 138 94 196 86 19 -3 121 -29 225 -59z"/>
</g>
</svg>
